<svg xmlns="http://www.w3.org/2000/svg" xmlns:xlink="http://www.w3.org/1999/xlink" x="0" y="0" version="1.1" viewBox="0 0 215 215" xml:space="preserve" style="enable-background:new 0 0 215 215"><style type="text/css">.st0{fill:#fff}.st1{fill:#75aadb}</style><g id="Gray_Logo"><g><circle cx="107.5" cy="107.5" r="106" class="st1"/><g><g><path d="M143.7,141.3h11.5v8.9h-17.6l-29.1-43.6H93.1v34.6h15.2v8.9H70.1v-8.9h13.1V64.5l-13.1-1.6v-8.5 c5,1.1,9.3,1.9,14.7,1.9c8.1,0,16.4-1.9,24.6-1.9c15.8,0,30.5,7.2,30.5,24.8c0,13.6-8.1,22.2-20.8,25.9L143.7,141.3z M93.1,98.1 l8.3,0.2c20.3,0.3,28.1-7.5,28.1-17.9c0-12.1-8.8-16.9-20-16.9c-5.3,0-10.7,0.5-16.4,1.1V98.1z" class="st0"/></g></g></g></g></svg>